<svg width="24" height="24" viewBox="0 0 24 24" fill="none" xmlns="http://www.w3.org/2000/svg">
<g id="ic:round-plus">
<path id="Vector" d="M18 12.9985H13V17.9985C13 18.2638 12.8946 18.5181 12.7071 18.7056C12.5196 18.8932 12.2652 18.9985 12 18.9985C11.7348 18.9985 11.4804 18.8932 11.2929 18.7056C11.1054 18.5181 11 18.2638 11 17.9985V12.9985H6C5.73478 12.9985 5.48043 12.8932 5.29289 12.7056C5.10536 12.5181 5 12.2638 5 11.9985C5 11.7333 5.10536 11.479 5.29289 11.2914C5.48043 11.1039 5.73478 10.9985 6 10.9985H11V5.99854C11 5.73332 11.1054 5.47896 11.2929 5.29143C11.4804 5.10389 11.7348 4.99854 12 4.99854C12.2652 4.99854 12.5196 5.10389 12.7071 5.29143C12.8946 5.47896 13 5.73332 13 5.99854V10.9985H18C18.2652 10.9985 18.5196 11.1039 18.7071 11.2914C18.8946 11.479 19 11.7333 19 11.9985C19 12.2638 18.8946 12.5181 18.7071 12.7056C18.5196 12.8932 18.2652 12.9985 18 12.9985Z" fill="white"/>
</g>
</svg>
